<svg xmlns="http://www.w3.org/2000/svg" version="1.1" xmlns:xlink="http://www.w3.org/1999/xlink" xmlns:svgjs="http://svgjs.dev/svgjs" viewBox="0 0 1422 800"><symbol id="SvgjsSymbol1003"><polygon points="0,12.5 25,0 50,12.5 25,25"></polygon></symbol><symbol id="SvgjsSymbol1004"><polygon points="0,12.5 25,25 25,50 0,37.5"></polygon></symbol><symbol id="SvgjsSymbol1005"><polygon points="25,25 50,12.5 50,37.5 25,50"></polygon></symbol><g shape-rendering="crispEdges"><g transform="translate(-75 -25)"><use xlink:href="#SvgjsSymbol1033" x="0" y="712.5" fill="hsl(274, 66%, 32%)"></use><use xlink:href="#SvgjsSymbol1034" x="0" y="712.5" fill="#8a4ab8"></use><use xlink:href="#SvgjsSymbol1035" x="0" y="712.5" fill="#280059"></use></g><g transform="translate(-75 -25)"><use xlink:href="#SvgjsSymbol1033" x="150" y="712.5" fill="hsl(274, 66%, 32%)"></use><use xlink:href="#SvgjsSymbol1034" x="150" y="712.5" fill="#8a4ab8"></use><use xlink:href="#SvgjsSymbol1035" x="150" y="712.5" fill="#280059"></use></g><g transform="translate(-75 -25)"><use xlink:href="#SvgjsSymbol1033" x="300" y="712.5" fill="hsl(274, 66%, 32%)"></use><use xlink:href="#SvgjsSymbol1034" x="300" y="712.5" fill="#8a4ab8"></use><use xlink:href="#SvgjsSymbol1035" x="300" y="712.5" fill="#280059"></use></g><g transform="translate(-75 -25)"><use xlink:href="#SvgjsSymbol1033" x="450" y="712.5" fill="hsl(274, 66%, 32%)"></use><use xlink:href="#SvgjsSymbol1034" x="450" y="712.5" fill="#8a4ab8"></use><use xlink:href="#SvgjsSymbol1035" x="450" y="712.5" fill="#280059"></use></g><g transform="translate(-75 -25)"><use xlink:href="#SvgjsSymbol1033" x="600" y="712.5" fill="hsl(274, 66%, 32%)"></use><use xlink:href="#SvgjsSymbol1034" x="600" y="712.5" fill="#8a4ab8"></use><use xlink:href="#SvgjsSymbol1035" x="600" y="712.5" fill="#280059"></use></g><g transform="translate(-75 -25)"><use xlink:href="#SvgjsSymbol1033" x="750" y="712.5" fill="hsl(274, 66%, 32%)"></use><use xlink:href="#SvgjsSymbol1034" x="750" y="712.5" fill="#8a4ab8"></use><use xlink:href="#SvgjsSymbol1035" x="750" y="712.5" fill="#280059"></use></g><g transform="translate(-75 -25)"><use xlink:href="#SvgjsSymbol1033" x="900" y="712.5" fill="hsl(274, 66%, 32%)"></use><use xlink:href="#SvgjsSymbol1034" x="900" y="712.5" fill="#8a4ab8"></use><use xlink:href="#SvgjsSymbol1035" x="900" y="712.5" fill="#280059"></use></g><g transform="translate(-75 -25)"><use xlink:href="#SvgjsSymbol1033" x="1050" y="712.5" fill="hsl(274, 66%, 32%)"></use><use xlink:href="#SvgjsSymbol1034" x="1050" y="712.5" fill="#8a4ab8"></use><use xlink:href="#SvgjsSymbol1035" x="1050" y="712.5" fill="#280059"></use></g><g transform="translate(-75 -25)"><use xlink:href="#SvgjsSymbol1033" x="1200" y="712.5" fill="hsl(274, 66%, 32%)"></use><use xlink:href="#SvgjsSymbol1034" x="1200" y="712.5" fill="#8a4ab8"></use><use xlink:href="#SvgjsSymbol1035" x="1200" y="712.5" fill="#280059"></use></g><g transform="translate(-75 -25)"><use xlink:href="#SvgjsSymbol1033" x="1350" y="712.5" fill="hsl(274, 66%, 32%)"></use><use xlink:href="#SvgjsSymbol1034" x="1350" y="712.5" fill="#8a4ab8"></use><use xlink:href="#SvgjsSymbol1035" x="1350" y="712.5" fill="#280059"></use></g><g transform="translate(-225 50)"><use xlink:href="#SvgjsSymbol1033" x="75" y="525" fill="hsl(273, 67%, 39%)"></use><use xlink:href="#SvgjsSymbol1034" x="75" y="525" fill="#9d52d8"></use><use xlink:href="#SvgjsSymbol1035" x="75" y="525" fill="#370076"></use></g><g transform="translate(-225 50)"><use xlink:href="#SvgjsSymbol1033" x="225" y="525" fill="hsl(273, 67%, 39%)"></use><use xlink:href="#SvgjsSymbol1034" x="225" y="525" fill="#9d52d8"></use><use xlink:href="#SvgjsSymbol1035" x="225" y="525" fill="#370076"></use></g><g transform="translate(-225 50)"><use xlink:href="#SvgjsSymbol1033" x="375" y="525" fill="hsl(273, 67%, 39%)"></use><use xlink:href="#SvgjsSymbol1034" x="375" y="525" fill="#9d52d8"></use><use xlink:href="#SvgjsSymbol1035" x="375" y="525" fill="#370076"></use></g><g transform="translate(-225 50)"><use xlink:href="#SvgjsSymbol1033" x="525" y="525" fill="hsl(273, 67%, 39%)"></use><use xlink:href="#SvgjsSymbol1034" x="525" y="525" fill="#9d52d8"></use><use xlink:href="#SvgjsSymbol1035" x="525" y="525" fill="#370076"></use></g><g transform="translate(75 50)"><use xlink:href="#SvgjsSymbol1033" x="375" y="525" fill="hsl(273, 67%, 39%)"></use><use xlink:href="#SvgjsSymbol1034" x="375" y="525" fill="#9d52d8"></use><use xlink:href="#SvgjsSymbol1035" x="375" y="525" fill="#370076"></use></g><g transform="translate(75 50)"><use xlink:href="#SvgjsSymbol1033" x="525" y="525" fill="hsl(273, 67%, 39%)"></use><use xlink:href="#SvgjsSymbol1034" x="525" y="525" fill="#9d52d8"></use><use xlink:href="#SvgjsSymbol1035" x="525" y="525" fill="#370076"></use></g><g transform="translate(75 50)"><use xlink:href="#SvgjsSymbol1033" x="675" y="525" fill="hsl(273, 67%, 39%)"></use><use xlink:href="#SvgjsSymbol1034" x="675" y="525" fill="#9d52d8"></use><use xlink:href="#SvgjsSymbol1035" x="675" y="525" fill="#370076"></use></g><g transform="translate(75 50)"><use xlink:href="#SvgjsSymbol1033" x="825" y="525" fill="hsl(273, 67%, 39%)"></use><use xlink:href="#SvgjsSymbol1034" x="825" y="525" fill="#9d52d8"></use><use xlink:href="#SvgjsSymbol1035" x="825" y="525" fill="#370076"></use></g><g transform="translate(75 50)"><use xlink:href="#SvgjsSymbol1033" x="975" y="525" fill="hsl(273, 67%, 39%)"></use><use xlink:href="#SvgjsSymbol1034" x="975" y="525" fill="#9d52d8"></use><use xlink:href="#SvgjsSymbol1035" x="975" y="525" fill="#370076"></use></g><g transform="translate(75 50)"><use xlink:href="#SvgjsSymbol1033" x="1125" y="525" fill="hsl(273, 67%, 39%)"></use><use xlink:href="#SvgjsSymbol1034" x="1125" y="525" fill="#9d52d8"></use><use xlink:href="#SvgjsSymbol1035" x="1125" y="525" fill="#370076"></use></g><g transform="translate(75 50)"><use xlink:href="#SvgjsSymbol1033" x="1275" y="525" fill="hsl(273, 67%, 39%)"></use><use xlink:href="#SvgjsSymbol1034" x="1275" y="525" fill="#9d52d8"></use><use xlink:href="#SvgjsSymbol1035" x="1275" y="525" fill="#370076"></use></g><g transform="translate(75 50)"><use xlink:href="#SvgjsSymbol1033" x="1200" y="412.5" fill="hsl(272, 72%, 47%)"></use><use xlink:href="#SvgjsSymbol1034" x="1200" y="412.5" fill="#b357ff"></use><use xlink:href="#SvgjsSymbol1035" x="1200" y="412.5" fill="#48009c"></use></g><g transform="translate(75 50)"><use xlink:href="#SvgjsSymbol1033" x="1050" y="412.5" fill="hsl(272, 72%, 47%)"></use><use xlink:href="#SvgjsSymbol1034" x="1050" y="412.5" fill="#b357ff"></use><use xlink:href="#SvgjsSymbol1035" x="1050" y="412.5" fill="#48009c"></use></g><g transform="translate(75 50)"><use xlink:href="#SvgjsSymbol1033" x="900" y="412.5" fill="hsl(272, 72%, 47%)"></use><use xlink:href="#SvgjsSymbol1034" x="900" y="412.5" fill="#b357ff"></use><use xlink:href="#SvgjsSymbol1035" x="900" y="412.5" fill="#48009c"></use></g><g transform="translate(75 50)"><use xlink:href="#SvgjsSymbol1033" x="750" y="412.5" fill="hsl(272, 72%, 47%)"></use><use xlink:href="#SvgjsSymbol1034" x="750" y="412.5" fill="#b357ff"></use><use xlink:href="#SvgjsSymbol1035" x="750" y="412.5" fill="#48009c"></use></g><g transform="translate(75 50)"><use xlink:href="#SvgjsSymbol1033" x="600" y="412.5" fill="hsl(272, 72%, 47%)"></use><use xlink:href="#SvgjsSymbol1034" x="600" y="412.5" fill="#b357ff"></use><use xlink:href="#SvgjsSymbol1035" x="600" y="412.5" fill="#48009c"></use></g><g transform="translate(75 50)"><use xlink:href="#SvgjsSymbol1033" x="450" y="412.5" fill="hsl(272, 72%, 47%)"></use><use xlink:href="#SvgjsSymbol1034" x="450" y="412.5" fill="#b357ff"></use><use xlink:href="#SvgjsSymbol1035" x="450" y="412.5" fill="#48009c"></use></g><g transform="translate(75 50)"><use xlink:href="#SvgjsSymbol1033" x="300" y="412.5" fill="hsl(272, 72%, 47%)"></use><use xlink:href="#SvgjsSymbol1034" x="300" y="412.5" fill="#b357ff"></use><use xlink:href="#SvgjsSymbol1035" x="300" y="412.5" fill="#48009c"></use></g><g transform="translate(75 50)"><use xlink:href="#SvgjsSymbol1033" x="150" y="412.5" fill="hsl(272, 72%, 47%)"></use><use xlink:href="#SvgjsSymbol1034" x="150" y="412.5" fill="#b357ff"></use><use xlink:href="#SvgjsSymbol1035" x="150" y="412.5" fill="#48009c"></use></g><g transform="translate(75 50)"><use xlink:href="#SvgjsSymbol1033" x="0" y="412.5" fill="hsl(272, 72%, 47%)"></use><use xlink:href="#SvgjsSymbol1034" x="0" y="412.5" fill="#b357ff"></use><use xlink:href="#SvgjsSymbol1035" x="0" y="412.5" fill="#48009c"></use></g><g transform="translate(-225 50)"><use xlink:href="#SvgjsSymbol1033" x="150" y="412.5" fill="hsl(272, 72%, 47%)"></use><use xlink:href="#SvgjsSymbol1034" x="150" y="412.5" fill="#b357ff"></use><use xlink:href="#SvgjsSymbol1035" x="150" y="412.5" fill="#48009c"></use></g><g transform="translate(-225 50)"><use xlink:href="#SvgjsSymbol1033" x="225" y="300" fill="hsl(271, 81%, 56%)"></use><use xlink:href="#SvgjsSymbol1034" x="225" y="300" fill="#c867ff"></use><use xlink:href="#SvgjsSymbol1035" x="225" y="300" fill="#5c00b7"></use></g><g transform="translate(-225 50)"><use xlink:href="#SvgjsSymbol1033" x="75" y="300" fill="hsl(271, 81%, 56%)"></use><use xlink:href="#SvgjsSymbol1034" x="75" y="300" fill="#c867ff"></use><use xlink:href="#SvgjsSymbol1035" x="75" y="300" fill="#5c00b7"></use></g><g transform="translate(-225 50)"><use xlink:href="#SvgjsSymbol1033" x="375" y="300" fill="hsl(271, 81%, 56%)"></use><use xlink:href="#SvgjsSymbol1034" x="375" y="300" fill="#c867ff"></use><use xlink:href="#SvgjsSymbol1035" x="375" y="300" fill="#5c00b7"></use></g><g transform="translate(-225 50)"><use xlink:href="#SvgjsSymbol1033" x="525" y="300" fill="hsl(271, 81%, 56%)"></use><use xlink:href="#SvgjsSymbol1034" x="525" y="300" fill="#c867ff"></use><use xlink:href="#SvgjsSymbol1035" x="525" y="300" fill="#5c00b7"></use></g><g transform="translate(-225 50)"><use xlink:href="#SvgjsSymbol1033" x="675" y="300" fill="hsl(271, 81%, 56%)"></use><use xlink:href="#SvgjsSymbol1034" x="675" y="300" fill="#c867ff"></use><use xlink:href="#SvgjsSymbol1035" x="675" y="300" fill="#5c00b7"></use></g><g transform="translate(-225 50)"><use xlink:href="#SvgjsSymbol1033" x="825" y="300" fill="hsl(271, 81%, 56%)"></use><use xlink:href="#SvgjsSymbol1034" x="825" y="300" fill="#c867ff"></use><use xlink:href="#SvgjsSymbol1035" x="825" y="300" fill="#5c00b7"></use></g><g transform="translate(-225 50)"><use xlink:href="#SvgjsSymbol1033" x="975" y="300" fill="hsl(271, 81%, 56%)"></use><use xlink:href="#SvgjsSymbol1034" x="975" y="300" fill="#c867ff"></use><use xlink:href="#SvgjsSymbol1035" x="975" y="300" fill="#5c00b7"></use></g><g transform="translate(-225 50)"><use xlink:href="#SvgjsSymbol1033" x="1125" y="300" fill="hsl(271, 81%, 56%)"></use><use xlink:href="#SvgjsSymbol1034" x="1125" y="300" fill="#c867ff"></use><use xlink:href="#SvgjsSymbol1035" x="1125" y="300" fill="#5c00b7"></use></g><g transform="translate(150 50)"><use xlink:href="#SvgjsSymbol1033" x="900" y="300" fill="hsl(271, 81%, 56%)"></use><use xlink:href="#SvgjsSymbol1034" x="900" y="300" fill="#c867ff"></use><use xlink:href="#SvgjsSymbol1035" x="900" y="300" fill="#5c00b7"></use></g><g transform="translate(150 50)"><use xlink:href="#SvgjsSymbol1033" x="1050" y="300" fill="hsl(271, 81%, 56%)"></use><use xlink:href="#SvgjsSymbol1034" x="1050" y="300" fill="#c867ff"></use><use xlink:href="#SvgjsSymbol1035" x="1050" y="300" fill="#5c00b7"></use></g><g transform="translate(150 50)"><use xlink:href="#SvgjsSymbol1033" x="1200" y="300" fill="hsl(271, 81%, 56%)"></use><use xlink:href="#SvgjsSymbol1034" x="1200" y="300" fill="#c867ff"></use><use xlink:href="#SvgjsSymbol1035" x="1200" y="300" fill="#5c00b7"></use></g><g transform="translate(-225 50)"><use xlink:href="#SvgjsSymbol1033" x="150" y="187.5" fill="hsl(271, 91%, 65%)"></use><use xlink:href="#SvgjsSymbol1034" x="150" y="187.5" fill="#dd86ff"></use><use xlink:href="#SvgjsSymbol1035" x="150" y="187.5" fill="#7322c3"></use></g><g transform="translate(-225 50)"><use xlink:href="#SvgjsSymbol1033" x="300" y="187.5" fill="hsl(271, 91%, 65%)"></use><use xlink:href="#SvgjsSymbol1034" x="300" y="187.5" fill="#dd86ff"></use><use xlink:href="#SvgjsSymbol1035" x="300" y="187.5" fill="#7322c3"></use></g><g transform="translate(-225 50)"><use xlink:href="#SvgjsSymbol1033" x="450" y="187.5" fill="hsl(271, 91%, 65%)"></use><use xlink:href="#SvgjsSymbol1034" x="450" y="187.5" fill="#dd86ff"></use><use xlink:href="#SvgjsSymbol1035" x="450" y="187.5" fill="#7322c3"></use></g><g transform="translate(-225 50)"><use xlink:href="#SvgjsSymbol1033" x="600" y="187.5" fill="hsl(271, 91%, 65%)"></use><use xlink:href="#SvgjsSymbol1034" x="600" y="187.5" fill="#dd86ff"></use><use xlink:href="#SvgjsSymbol1035" x="600" y="187.5" fill="#7322c3"></use></g><g transform="translate(-225 50)"><use xlink:href="#SvgjsSymbol1033" x="750" y="187.5" fill="hsl(271, 91%, 65%)"></use><use xlink:href="#SvgjsSymbol1034" x="750" y="187.5" fill="#dd86ff"></use><use xlink:href="#SvgjsSymbol1035" x="750" y="187.5" fill="#7322c3"></use></g><g transform="translate(-225 50)"><use xlink:href="#SvgjsSymbol1033" x="900" y="187.5" fill="hsl(271, 91%, 65%)"></use><use xlink:href="#SvgjsSymbol1034" x="900" y="187.5" fill="#dd86ff"></use><use xlink:href="#SvgjsSymbol1035" x="900" y="187.5" fill="#7322c3"></use></g><g transform="translate(-225 50)"><use xlink:href="#SvgjsSymbol1033" x="1050" y="187.5" fill="hsl(271, 91%, 65%)"></use><use xlink:href="#SvgjsSymbol1034" x="1050" y="187.5" fill="#dd86ff"></use><use xlink:href="#SvgjsSymbol1035" x="1050" y="187.5" fill="#7322c3"></use></g><g transform="translate(-225 50)"><use xlink:href="#SvgjsSymbol1033" x="1200" y="187.5" fill="hsl(271, 91%, 65%)"></use><use xlink:href="#SvgjsSymbol1034" x="1200" y="187.5" fill="#dd86ff"></use><use xlink:href="#SvgjsSymbol1035" x="1200" y="187.5" fill="#7322c3"></use></g><g transform="translate(-225 50)"><use xlink:href="#SvgjsSymbol1033" x="1350" y="187.5" fill="hsl(271, 91%, 65%)"></use><use xlink:href="#SvgjsSymbol1034" x="1350" y="187.5" fill="#dd86ff"></use><use xlink:href="#SvgjsSymbol1035" x="1350" y="187.5" fill="#7322c3"></use></g><g transform="translate(75 50)"><use xlink:href="#SvgjsSymbol1033" x="1200" y="187.5" fill="hsl(271, 91%, 65%)"></use><use xlink:href="#SvgjsSymbol1034" x="1200" y="187.5" fill="#dd86ff"></use><use xlink:href="#SvgjsSymbol1035" x="1200" y="187.5" fill="#7322c3"></use></g><g transform="translate(75 50)"><use xlink:href="#SvgjsSymbol1033" x="1275" y="75" fill="hsl(270, 95%, 75%)"></use><use xlink:href="#SvgjsSymbol1034" x="1275" y="75" fill="#f4b4ff"></use><use xlink:href="#SvgjsSymbol1035" x="1275" y="75" fill="#8c55c8"></use></g><g transform="translate(75 50)"><use xlink:href="#SvgjsSymbol1033" x="1125" y="75" fill="hsl(270, 95%, 75%)"></use><use xlink:href="#SvgjsSymbol1034" x="1125" y="75" fill="#f4b4ff"></use><use xlink:href="#SvgjsSymbol1035" x="1125" y="75" fill="#8c55c8"></use></g><g transform="translate(75 50)"><use xlink:href="#SvgjsSymbol1033" x="975" y="75" fill="hsl(270, 95%, 75%)"></use><use xlink:href="#SvgjsSymbol1034" x="975" y="75" fill="#f4b4ff"></use><use xlink:href="#SvgjsSymbol1035" x="975" y="75" fill="#8c55c8"></use></g><g transform="translate(75 50)"><use xlink:href="#SvgjsSymbol1033" x="825" y="75" fill="hsl(270, 95%, 75%)"></use><use xlink:href="#SvgjsSymbol1034" x="825" y="75" fill="#f4b4ff"></use><use xlink:href="#SvgjsSymbol1035" x="825" y="75" fill="#8c55c8"></use></g><g transform="translate(75 50)"><use xlink:href="#SvgjsSymbol1033" x="675" y="75" fill="hsl(270, 95%, 75%)"></use><use xlink:href="#SvgjsSymbol1034" x="675" y="75" fill="#f4b4ff"></use><use xlink:href="#SvgjsSymbol1035" x="675" y="75" fill="#8c55c8"></use></g><g transform="translate(75 50)"><use xlink:href="#SvgjsSymbol1033" x="525" y="75" fill="hsl(270, 95%, 75%)"></use><use xlink:href="#SvgjsSymbol1034" x="525" y="75" fill="#f4b4ff"></use><use xlink:href="#SvgjsSymbol1035" x="525" y="75" fill="#8c55c8"></use></g><g transform="translate(75 50)"><use xlink:href="#SvgjsSymbol1033" x="375" y="75" fill="hsl(270, 95%, 75%)"></use><use xlink:href="#SvgjsSymbol1034" x="375" y="75" fill="#f4b4ff"></use><use xlink:href="#SvgjsSymbol1035" x="375" y="75" fill="#8c55c8"></use></g><g transform="translate(75 50)"><use xlink:href="#SvgjsSymbol1033" x="225" y="75" fill="hsl(270, 95%, 75%)"></use><use xlink:href="#SvgjsSymbol1034" x="225" y="75" fill="#f4b4ff"></use><use xlink:href="#SvgjsSymbol1035" x="225" y="75" fill="#8c55c8"></use></g><g transform="translate(75 50)"><use xlink:href="#SvgjsSymbol1033" x="75" y="75" fill="hsl(270, 95%, 75%)"></use><use xlink:href="#SvgjsSymbol1034" x="75" y="75" fill="#f4b4ff"></use><use xlink:href="#SvgjsSymbol1035" x="75" y="75" fill="#8c55c8"></use></g><g transform="translate(-225 50)"><use xlink:href="#SvgjsSymbol1033" x="225" y="75" fill="hsl(270, 95%, 75%)"></use><use xlink:href="#SvgjsSymbol1034" x="225" y="75" fill="#f4b4ff"></use><use xlink:href="#SvgjsSymbol1035" x="225" y="75" fill="#8c55c8"></use></g><g transform="translate(-225 50)"><use xlink:href="#SvgjsSymbol1033" x="75" y="75" fill="hsl(270, 95%, 75%)"></use><use xlink:href="#SvgjsSymbol1034" x="75" y="75" fill="#f4b4ff"></use><use xlink:href="#SvgjsSymbol1035" x="75" y="75" fill="#8c55c8"></use></g><g transform="translate(-225 -100)"><use xlink:href="#SvgjsSymbol1033" x="150" y="112.5" fill="hsl(269, 97%, 85%)"></use><use xlink:href="#SvgjsSymbol1034" x="150" y="112.5" fill="#ffe6ff"></use><use xlink:href="#SvgjsSymbol1035" x="150" y="112.5" fill="#a684cb"></use></g><g transform="translate(-225 -100)"><use xlink:href="#SvgjsSymbol1033" x="300" y="112.5" fill="hsl(269, 97%, 85%)"></use><use xlink:href="#SvgjsSymbol1034" x="300" y="112.5" fill="#ffe6ff"></use><use xlink:href="#SvgjsSymbol1035" x="300" y="112.5" fill="#a684cb"></use></g><g transform="translate(-225 -100)"><use xlink:href="#SvgjsSymbol1033" x="450" y="112.5" fill="hsl(269, 97%, 85%)"></use><use xlink:href="#SvgjsSymbol1034" x="450" y="112.5" fill="#ffe6ff"></use><use xlink:href="#SvgjsSymbol1035" x="450" y="112.5" fill="#a684cb"></use></g><g transform="translate(-225 -100)"><use xlink:href="#SvgjsSymbol1033" x="600" y="112.5" fill="hsl(269, 97%, 85%)"></use><use xlink:href="#SvgjsSymbol1034" x="600" y="112.5" fill="#ffe6ff"></use><use xlink:href="#SvgjsSymbol1035" x="600" y="112.5" fill="#a684cb"></use></g><g transform="translate(-225 -100)"><use xlink:href="#SvgjsSymbol1033" x="750" y="112.5" fill="hsl(269, 97%, 85%)"></use><use xlink:href="#SvgjsSymbol1034" x="750" y="112.5" fill="#ffe6ff"></use><use xlink:href="#SvgjsSymbol1035" x="750" y="112.5" fill="#a684cb"></use></g><g transform="translate(-225 -100)"><use xlink:href="#SvgjsSymbol1033" x="900" y="112.5" fill="hsl(269, 97%, 85%)"></use><use xlink:href="#SvgjsSymbol1034" x="900" y="112.5" fill="#ffe6ff"></use><use xlink:href="#SvgjsSymbol1035" x="900" y="112.5" fill="#a684cb"></use></g><g transform="translate(-225 -100)"><use xlink:href="#SvgjsSymbol1033" x="1050" y="112.5" fill="hsl(269, 97%, 85%)"></use><use xlink:href="#SvgjsSymbol1034" x="1050" y="112.5" fill="#ffe6ff"></use><use xlink:href="#SvgjsSymbol1035" x="1050" y="112.5" fill="#a684cb"></use></g><g transform="translate(-225 -100)"><use xlink:href="#SvgjsSymbol1033" x="1200" y="112.5" fill="hsl(269, 97%, 85%)"></use><use xlink:href="#SvgjsSymbol1034" x="1200" y="112.5" fill="#ffe6ff"></use><use xlink:href="#SvgjsSymbol1035" x="1200" y="112.5" fill="#a684cb"></use></g><g transform="translate(-225 -100)"><use xlink:href="#SvgjsSymbol1033" x="1350" y="112.5" fill="hsl(269, 97%, 85%)"></use><use xlink:href="#SvgjsSymbol1034" x="1350" y="112.5" fill="#ffe6ff"></use><use xlink:href="#SvgjsSymbol1035" x="1350" y="112.5" fill="#a684cb"></use></g><g transform="translate(225 -100)"><use xlink:href="#SvgjsSymbol1033" x="1050" y="112.5" fill="hsl(269, 97%, 85%)"></use><use xlink:href="#SvgjsSymbol1034" x="1050" y="112.5" fill="#ffe6ff"></use><use xlink:href="#SvgjsSymbol1035" x="1050" y="112.5" fill="#a684cb"></use></g><g transform="translate(300 -100)"><use xlink:href="#SvgjsSymbol1033" x="1050" y="0" fill="hsl(269, 97%, 85%)"></use><use xlink:href="#SvgjsSymbol1034" x="1050" y="0" fill="#ffe6ff"></use><use xlink:href="#SvgjsSymbol1035" x="1050" y="0" fill="#a684cb"></use></g><g transform="translate(300 -100)"><use xlink:href="#SvgjsSymbol1033" x="900" y="0" fill="hsl(269, 97%, 85%)"></use><use xlink:href="#SvgjsSymbol1034" x="900" y="0" fill="#ffe6ff"></use><use xlink:href="#SvgjsSymbol1035" x="900" y="0" fill="#a684cb"></use></g><g transform="translate(300 -100)"><use xlink:href="#SvgjsSymbol1033" x="750" y="0" fill="hsl(269, 97%, 85%)"></use><use xlink:href="#SvgjsSymbol1034" x="750" y="0" fill="#ffe6ff"></use><use xlink:href="#SvgjsSymbol1035" x="750" y="0" fill="#a684cb"></use></g><g transform="translate(300 -100)"><use xlink:href="#SvgjsSymbol1033" x="600" y="0" fill="hsl(269, 97%, 85%)"></use><use xlink:href="#SvgjsSymbol1034" x="600" y="0" fill="#ffe6ff"></use><use xlink:href="#SvgjsSymbol1035" x="600" y="0" fill="#a684cb"></use></g><g transform="translate(300 -100)"><use xlink:href="#SvgjsSymbol1033" x="450" y="0" fill="hsl(269, 97%, 85%)"></use><use xlink:href="#SvgjsSymbol1034" x="450" y="0" fill="#ffe6ff"></use><use xlink:href="#SvgjsSymbol1035" x="450" y="0" fill="#a684cb"></use></g><g transform="translate(-225 -175)"><use xlink:href="#SvgjsSymbol1033" x="825" y="75" fill="hsl(269, 97%, 85%)"></use><use xlink:href="#SvgjsSymbol1034" x="825" y="75" fill="#ffe6ff"></use><use xlink:href="#SvgjsSymbol1035" x="825" y="75" fill="#a684cb"></use></g><g transform="translate(-225 -175)"><use xlink:href="#SvgjsSymbol1033" x="675" y="75" fill="hsl(269, 97%, 85%)"></use><use xlink:href="#SvgjsSymbol1034" x="675" y="75" fill="#ffe6ff"></use><use xlink:href="#SvgjsSymbol1035" x="675" y="75" fill="#a684cb"></use></g><g transform="translate(-225 -175)"><use xlink:href="#SvgjsSymbol1033" x="525" y="75" fill="hsl(269, 97%, 85%)"></use><use xlink:href="#SvgjsSymbol1034" x="525" y="75" fill="#ffe6ff"></use><use xlink:href="#SvgjsSymbol1035" x="525" y="75" fill="#a684cb"></use></g><g transform="translate(-225 -175)"><use xlink:href="#SvgjsSymbol1033" x="375" y="75" fill="hsl(269, 97%, 85%)"></use><use xlink:href="#SvgjsSymbol1034" x="375" y="75" fill="#ffe6ff"></use><use xlink:href="#SvgjsSymbol1035" x="375" y="75" fill="#a684cb"></use></g><g transform="translate(-225 -175)"><use xlink:href="#SvgjsSymbol1033" x="225" y="75" fill="hsl(269, 97%, 85%)"></use><use xlink:href="#SvgjsSymbol1034" x="225" y="75" fill="#ffe6ff"></use><use xlink:href="#SvgjsSymbol1035" x="225" y="75" fill="#a684cb"></use></g><g transform="translate(-225 -175)"><use xlink:href="#SvgjsSymbol1033" x="75" y="75" fill="hsl(269, 97%, 85%)"></use><use xlink:href="#SvgjsSymbol1034" x="75" y="75" fill="#ffe6ff"></use><use xlink:href="#SvgjsSymbol1035" x="75" y="75" fill="#a684cb"></use></g></g><g></g><symbol id="SvgjsSymbol1006"><polygon points="0,18.75 37.5,0 75,18.75 37.5,37.5"></polygon></symbol><symbol id="SvgjsSymbol1007"><polygon points="0,18.75 37.5,37.5 37.5,75 0,56.25"></polygon></symbol><symbol id="SvgjsSymbol1008"><polygon points="37.5,37.5 75,18.75 75,56.25 37.5,75"></polygon></symbol><symbol id="SvgjsSymbol1009"><polygon points="0,25 50,0 100,25 50,50"></polygon></symbol><symbol id="SvgjsSymbol1010"><polygon points="0,25 50,50 50,100 0,75"></polygon></symbol><symbol id="SvgjsSymbol1011"><polygon points="50,50 100,25 100,75 50,100"></polygon></symbol><symbol id="SvgjsSymbol1012"><polygon points="0,31.25 62.5,0 125,31.25 62.5,62.5"></polygon></symbol><symbol id="SvgjsSymbol1013"><polygon points="0,31.25 62.5,62.5 62.5,125 0,93.75"></polygon></symbol><symbol id="SvgjsSymbol1014"><polygon points="62.5,62.5 125,31.25 125,93.75 62.5,125"></polygon></symbol><symbol id="SvgjsSymbol1015"><polygon points="0,37.5 75,0 150,37.5 75,75"></polygon></symbol><symbol id="SvgjsSymbol1016"><polygon points="0,37.5 75,75 75,150 0,112.5"></polygon></symbol><symbol id="SvgjsSymbol1017"><polygon points="75,75 150,37.5 150,112.5 75,150"></polygon></symbol><symbol id="SvgjsSymbol1018"><polygon points="0,43.75 87.5,0 175,43.75 87.5,87.5"></polygon></symbol><symbol id="SvgjsSymbol1019"><polygon points="0,43.75 87.5,87.5 87.5,175 0,131.25"></polygon></symbol><symbol id="SvgjsSymbol1020"><polygon points="87.5,87.5 175,43.75 175,131.25 87.5,175"></polygon></symbol><symbol id="SvgjsSymbol1021"><polygon points="0,50 100,0 200,50 100,100"></polygon></symbol><symbol id="SvgjsSymbol1022"><polygon points="0,50 100,100 100,200 0,150"></polygon></symbol><symbol id="SvgjsSymbol1023"><polygon points="100,100 200,50 200,150 100,200"></polygon></symbol><symbol id="SvgjsSymbol1024"><polygon points="0,56.25 112.5,0 225,56.25 112.5,112.5"></polygon></symbol><symbol id="SvgjsSymbol1025"><polygon points="0,56.25 112.5,112.5 112.5,225 0,168.75"></polygon></symbol><symbol id="SvgjsSymbol1026"><polygon points="112.5,112.5 225,56.25 225,168.75 112.5,225"></polygon></symbol><symbol id="SvgjsSymbol1027"><polygon points="0,50 100,0 200,50 100,100"></polygon></symbol><symbol id="SvgjsSymbol1028"><polygon points="0,50 100,100 100,200 0,150"></polygon></symbol><symbol id="SvgjsSymbol1029"><polygon points="100,100 200,50 200,150 100,200"></polygon></symbol><symbol id="SvgjsSymbol1030"><polygon points="0,43.75 87.5,0 175,43.75 87.5,87.5"></polygon></symbol><symbol id="SvgjsSymbol1031"><polygon points="0,43.75 87.5,87.5 87.5,175 0,131.25"></polygon></symbol><symbol id="SvgjsSymbol1032"><polygon points="87.5,87.5 175,43.75 175,131.25 87.5,175"></polygon></symbol><symbol id="SvgjsSymbol1033"><polygon points="0,37.5 75,0 150,37.5 75,75"></polygon></symbol><symbol id="SvgjsSymbol1034"><polygon points="0,37.5 75,75 75,150 0,112.5"></polygon></symbol><symbol id="SvgjsSymbol1035"><polygon points="75,75 150,37.5 150,112.5 75,150"></polygon></symbol></svg>